<svg xmlns="http://www.w3.org/2000/svg" version="1.1" xmlns:xlink="http://www.w3.org/1999/xlink" xmlns:svgjs="http://svgjs.dev/svgjs" width="100%" height="100%" viewBox="0 0 1000 600"><rect width="1000" height="600" x="0" y="0" fill="#a2aebb"/><g><rect width="333.3333333333333" height="333.3333333333333" rx="13.333333333333334" ry="13.333333333333334" y="237.52478265742963" fill="75abbc" transform="matrix(0.5805783501539469,0,0,0.5805783501539468,0,65.33519606680667)" x="215.30255126953125"/><path d="M446.0861521654401 333.9627344915117L446.0861521654401 383.81126201383995L430.4545263972716 383.81126201383995Q429.6365924907976 364.4989336665387 419.00345170663644 355.1381345146703Q408.4157516950571 345.7773353628019 389.69415339132036 345.7773353628019L389.69415339132036 345.7773353628019Q378.3794010184309 345.7773353628019 369.4275688197995 349.8670048951716Q360.47573662116804 353.95667442754126 354.3412323226135 361.4544019035523Q348.1612872514771 368.9521293795634 344.88955162558136 379.81247402663405Q341.6178159996856 390.6728186737047 341.6178159996856 404.2596096756884L341.6178159996856 404.2596096756884Q341.6178159996856 417.98272299541776 344.98043317074513 428.2977783715058Q348.34305034180466 438.61283374759375 354.6593177306867 446.33776508651425Q360.93014434698694 454.10813719801666 369.88197654561833 458.24324750296825Q378.8338087442498 462.4237985805017 390.0122387993936 462.4237985805017L390.0122387993936 462.4237985805017Q406.00739074821723 462.4237985805017 416.77685385012404 454.56254492383556Q427.5463169520309 446.74673203975124 431.86319034731 431.11510627158265L431.86319034731 431.11510627158265L450.5847886510468 434.29596035231464Q447.9946646138793 445.3380680897128 442.4963311314712 453.8809333351073Q436.99799764906305 462.4237985805017 428.86409935690557 467.69492820000045Q420.6847602921662 472.9660578194991 410.14250105316876 476.0560303550673Q399.60024181417134 479.1914436632174 386.9677070364072 479.1914436632174L386.9677070364072 479.1914436632174Q370.2000619536915 479.1914436632174 356.6587117242897 473.8294324985549Q343.07192072230595 468.46742133389245 333.4839177075281 459.19750372718784Q323.8959146927503 449.9275861204832 318.6247850732516 436.11359125559005Q313.3536554537529 422.2995963906969 313.3536554537529 405.39562899023554L313.3536554537529 405.39562899023554Q313.3536554537529 389.4004770414119 318.44302198292405 375.5864821765187Q323.5778292846771 361.7724873116255 332.8931876639636 351.5483134807013Q342.25398681583204 341.3241396497771 355.11372545650556 335.2350761238045Q367.97346409717915 329.1914533704137 383.6505306379296 329.1914533704137L383.6505306379296 329.1914533704137Q390.0122387993936 329.1914533704137 396.2376246431119 329.96394650430574Q402.46301048683017 330.7818804107797 408.14310705956586 332.6903928592189Q413.8232036323015 334.5989053076581 418.6853662985633 337.9615224787176Q423.59296973740686 341.3241396497771 427.4099946342852 346.2771838612026L427.4099946342852 346.2771838612026L431.4087826214911 333.6446490834385Q432.04495343763756 333.6446490834385 434.1806697489862 333.73553062860225Q436.3618268329167 333.826412173766 438.7701877797566 333.826412173766Q441.13310795401463 333.826412173766 443.3142650379451 333.87185294634793Q445.44998134929375 333.9627344915117 446.0861521654401 333.9627344915117L446.0861521654401 333.9627344915117Z " fill="#ccf381" transform="matrix(0.5805783501539469,0,0,0.5805783501539468,0,65.33519606680667)"/><path d="M704.342854104206 366.3817331922651L704.342854104206 393.5621093917303L695.8195638465797 393.5621093917303Q695.3735777284481 383.03188160251176 689.5757581927372 377.92781825056113Q683.8027156635892 372.8237548986105 673.5945889596879 372.8237548986105L673.5945889596879 372.8237548986105Q667.425114325534 372.8237548986105 662.5440440326493 375.05368548926856Q657.6629737397644 377.2836160799266 654.3180778537774 381.3718221627997Q650.9484049612274 385.46002824567273 649.164460488701 391.38173281419796Q647.3805160161746 397.3034373827232 647.3805160161746 404.7117623450205L647.3805160161746 404.7117623450205Q647.3805160161746 412.1944183270063 649.2140145018268 417.81879881677713Q651.047512987479 423.44317930654796 654.4915168997175 427.6552704222354Q657.910743805393 431.89213854448565 662.7918140982779 434.1468461417066Q667.6728843911627 436.42633074549036 673.768028005628 436.42633074549036L673.768028005628 436.42633074549036Q682.4895343157573 436.42633074549036 688.3616848711567 432.13990861011433Q694.2338354265562 427.8782634813012 696.5876510500286 419.3549732236749L696.5876510500286 419.3549732236749L706.7957777539298 421.0893636830756Q705.3834883798464 427.1101762778523 702.3854705857395 431.76825351167133Q699.3874527916325 436.42633074549036 694.9523686168793 439.30046350678293Q690.4925074355633 442.1745962680755 684.7442419129782 443.8594327143505Q678.995976390393 445.5690461671883 672.1079685659159 445.5690461671883L672.1079685659159 445.5690461671883Q662.965253144218 445.5690461671883 655.5817051884835 442.64535939277Q648.1733802261863 439.72167261835165 642.9454318414214 434.6671632795268Q637.7174834566564 429.6126539407019 634.8433506953638 422.0804439455903Q631.9692179340713 414.5482339504787 631.9692179340713 405.33118750909216L631.9692179340713 405.33118750909216Q631.9692179340713 396.60968119896296 634.7442426691123 389.07747120385136Q637.5440444107163 381.54526120873976 642.6233307561041 375.97043473209465Q647.7273941080548 370.39560825544953 654.7392869653461 367.07548937602536Q661.7511798226375 363.7801475031641 670.2992470868267 363.7801475031641L670.2992470868267 363.7801475031641Q673.768028005628 363.7801475031641 677.1624779047409 364.2013566147328Q680.5569278038536 364.6473427328644 683.654053624212 365.6879770085048Q686.7511794445704 366.72861128414525 689.4023191467971 368.5621097697974Q692.0782358555869 370.39560825544953 694.1595044068677 373.0963019708021L694.1595044068677 373.0963019708021L696.3398809843999 366.20829414632504Q696.68675907628 366.20829414632504 697.8512783847348 366.25784815945076Q699.0405746997524 366.3074021725765 700.3537560475844 366.3074021725765Q701.6421603888534 366.3074021725765 702.831456703871 366.33217917913936Q703.9959760123259 366.3817331922651 704.342854104206 366.3817331922651L704.342854104206 366.3817331922651ZM785.5371046107214 431.0249433147853L785.5371046107214 397.4025454089747Q785.5371046107214 391.03485472231785 784.868125433524 386.3272234753731Q784.2239232628895 381.61959222842836 782.439978790363 378.6215744343214Q780.6560343178367 375.62355664021453 777.5589084974782 374.23604427269396Q774.4617826771198 372.8237548986105 769.5063813645464 372.8237548986105L769.5063813645464 372.8237548986105Q764.7987501176017 372.8237548986105 760.7600980478543 374.31037529238256Q756.6966689715441 375.79699568615456 753.5252121314971 378.1012572965012Q750.3537552914502 380.4055189068479 747.9999396679777 382.98232758938605Q745.6461240445054 385.5591362719242 744.233834670422 387.8138438691451L744.233834670422 387.8138438691451L744.233834670422 432.23901663636576Q744.233834670422 433.62652900388633 744.8532598344937 434.4193932138981Q745.4726849985653 435.187480417347 746.9345283857745 435.55913551579Q748.4211487795465 435.9060136076701 750.9979574620847 435.930790614233Q753.5747661446229 435.9803446273587 757.4895331815559 435.9803446273587L757.4895331815559 435.9803446273587L757.4895331815559 443.7355476815361Q754.9622785121435 443.7355476815361 752.608462888671 443.7355476815361Q750.2546472651986 443.7355476815361 747.7273925957862 443.7355476815361Q745.2001379263738 443.7355476815361 742.4251131913327 443.6859936684104Q739.6253114497288 443.6364396552846 736.3051925703045 443.5621086355961L736.3051925703045 443.5621086355961Q733.2576207630718 443.5621086355961 730.6560350739708 443.6116626487218Q728.0544493848698 443.6364396552846 725.6510797482716 443.6364396552846Q723.2477101116735 443.6364396552846 720.9930025144527 443.6859936684104Q718.7135179106689 443.7355476815361 716.3597022871966 443.7355476815361L716.3597022871966 443.7355476815361L716.3597022871966 435.9803446273587Q721.2407725800813 435.9803446273587 723.9414662954339 435.7573515682929Q726.6421600107864 435.55913551579 727.9057873454926 435.0635953845326Q729.1694146801988 434.5928322598382 729.4419617523904 433.75041403670065Q729.689731818019 432.93277282012605 729.689731818019 431.71869949854556L729.689731818019 431.71869949854556L729.689731818019 342.4223678459726Q729.689731818019 341.13396350470356 728.7729825751929 340.39065330781756Q727.8562333323669 339.6473431109315 726.1713968860919 339.3500190321771Q724.461783433254 339.0279179468599 722.1079678097817 338.9783639337341Q719.7789291928722 338.9535869271712 716.9047964315796 338.9535869271712L716.9047964315796 338.9535869271712L716.9047964315796 331.0992758467424Q718.4657478450401 331.0992758467424 720.1505842913152 331.1488298598681Q721.8601977441531 331.1983838729938 724.114905341374 331.1983838729938L724.114905341374 331.1983838729938Q728.9216446145701 331.1983838729938 733.8770459271435 331.0744988401795Q738.832447239717 330.9258368008023 744.1595036507334 330.7523977548622L744.1595036507334 330.7523977548622Q744.1595036507334 335.80690709368713 744.2090576638591 341.6542806425237Q744.233834670422 347.4768771847975 744.233834670422 353.54724379269993Q744.233834670422 359.5928333940395 744.233834670422 365.464983949439Q744.233834670422 371.3619115114014 744.233834670422 376.3916438436634L744.233834670422 376.3916438436634Q750.5271943373903 369.87529111762933 758.1337353521903 366.82771931039673Q765.7650533735534 363.7801475031641 774.98209981494 363.7801475031641L774.98209981494 363.7801475031641Q783.0841809609976 363.7801475031641 788.0643592801339 366.3074021725765Q793.0197605927073 368.83465684198893 795.7204543080597 373.8396121676881Q798.4211480234123 378.8445674933872 799.3378972662384 386.3272234753731Q800.2546465090645 393.8346564639218 800.2546465090645 403.8445671153201L800.2546465090645 403.8445671153201L800.2546465090645 430.75239624259376Q800.2546465090645 432.759333774186 800.8740716731361 433.7999680498264Q801.4687198306449 434.8406023254668 802.9057862112912 435.3361424567242Q804.3428525919376 435.8069055814187 806.6966682154099 435.9060136076701Q809.0504838388822 435.9803446273587 812.6183727839351 435.9803446273587L812.6183727839351 435.9803446273587L812.6183727839351 443.7355476815361Q810.2645571604628 443.7355476815361 808.0594035763676 443.7355476815361Q805.8294729857096 443.7355476815361 803.4756573622371 443.7355476815361Q801.1218417387648 443.7355476815361 798.470702036538 443.6859936684104Q795.8195623343113 443.6364396552846 792.6728825008271 443.5621086355961L792.6728825008271 443.5621086355961Q786.4042998404218 443.5621086355961 781.7462226066027 443.6364396552846Q777.0881453727837 443.7355476815361 772.380514125839 443.7355476815361L772.380514125839 443.7355476815361L772.380514125839 435.9803446273587Q776.2209501430834 435.9060136076701 778.7482048124958 435.7325745617301Q781.2754594819082 435.55913551579 782.7868568822431 435.0635953845326Q784.323031289141 434.5928322598382 784.9176794466497 433.62652900388633Q785.5371046107214 432.6850027544974 785.5371046107214 431.0249433147853L785.5371046107214 431.0249433147853ZM856.0029112755153 445.5690461671883L856.0029112755153 445.5690461671883Q847.7273910835178 445.5690461671883 842.7719897709444 443.0417914977758Q837.791811451808 440.5145368283634 835.1406717495813 435.5839125223528Q832.4895320473545 430.67806522290516 831.6471138242171 423.49273331967373Q830.8294726076424 416.30740141644225 830.8294726076424 406.96646994224136L830.8294726076424 406.96646994224136L830.8294726076424 379.3648846312074Q830.8294726076424 377.18450805367513 830.4330405026366 375.97043473209465Q830.0366083976307 374.75636141051416 828.7482040563616 374.23604427269396Q827.4350227085297 373.6909501283109 824.957322052243 373.6166191086223Q822.4548443893933 373.5175110823708 818.3666383065203 373.5175110823708L818.3666383065203 373.5175110823708L818.3666383065203 365.96052408069636Q822.2070743237647 365.96052408069636 825.502416196626 365.96052408069636Q828.8225350760501 365.96052408069636 831.9939919160972 365.91097006757064Q835.1902257627071 365.8614160544449 838.4607906290055 365.73753102163056Q841.7065784887411 365.58886898225336 845.4726834862969 365.4154299363133L845.4726834862969 365.4154299363133L845.4726834862969 411.4263311235574Q845.4726834862969 416.90204957395105 845.9434466109914 421.6096808208958Q846.4142097356859 426.31731206784053 848.0247151622722 429.6126539407019Q849.6352205888586 432.93277282012605 852.6580153895284 434.6671632795268Q855.6560331836353 436.42633074549036 860.7105425224602 436.42633074549036L860.7105425224602 436.42633074549036Q865.4181737694048 436.42633074549036 869.3824948194635 435.4104734764128Q873.3468158695223 434.4193932138981 876.567826722695 432.5363407151202Q879.7888375758678 430.67806522290516 882.2169842190287 428.0517025272413Q884.6699078687526 425.4501168381402 886.3051903019018 422.65031509653625L886.3051903019018 422.65031509653625Q886.4786293478419 419.4293042433635 886.4786293478419 416.2578474033165Q886.4786293478419 413.0616135567067 886.4786293478419 409.76627168384533L886.4786293478419 409.76627168384533L886.4786293478419 379.8108707493391Q886.4786293478419 377.4570551258667 886.106974249399 376.19342779116045Q885.710542144393 374.92980045645425 884.3478067834353 374.31037529238256Q883.0098484290405 373.6909501283109 880.4825937596281 373.6166191086223Q877.9553390902156 373.5175110823708 873.6936939614025 373.5175110823708L873.6936939614025 373.5175110823708L873.6936939614025 365.96052408069636Q880.309154713688 365.96052408069636 887.2219395447279 365.8614160544449Q894.1595013823307 365.7870850347563 901.1218402264964 365.3410989166247L901.1218402264964 365.3410989166247L901.1218402264964 431.54526045260553Q901.1218402264964 433.10621186606613 901.567826344628 434.0229611088922Q901.9890354561967 434.9397103517183 903.3517708171544 435.3609194632871Q904.6897291715493 435.8069055814187 907.142652821273 435.9060136076701Q909.570799464434 435.9803446273587 913.5846745276185 435.9803446273587L913.5846745276185 435.9803446273587L913.5846745276185 443.7355476815361Q905.7303634471896 443.7355476815361 899.3874497670956 443.8346557077876Q893.0197590804388 443.9089867274762 887.0980545119136 444.0824257734162L887.0980545119136 444.0824257734162L887.0980545119136 432.41245568230585Q881.0772419171369 439.02791643459136 873.1733768235822 442.2984813008898Q865.2447347234648 445.5690461671883 856.0029112755153 445.5690461671883ZM996.2407684213431 366.3817331922651L996.2407684213431 393.5621093917303L987.7174781637168 393.5621093917303Q987.2714920455851 383.03188160251176 981.4736725098742 377.92781825056113Q975.6758529741633 372.8237548986105 965.4925032768251 372.8237548986105L965.4925032768251 372.8237548986105Q959.2982516361083 372.8237548986105 954.4419583497863 375.05368548926856Q949.5608880569014 377.2836160799266 946.1912151643515 381.3718221627997Q942.8463192783645 385.46002824567273 941.0623748058381 391.38173281419796Q939.2784303333117 397.3034373827232 939.2784303333117 404.7117623450205L939.2784303333117 404.7117623450205Q939.2784303333117 412.1944183270063 941.1119288189639 417.81879881677713Q942.945427304616 423.44317930654796 946.3646542102916 427.6552704222354Q949.8086581225302 431.89213854448565 954.689728415415 434.1468461417066Q959.5707987082998 436.42633074549036 965.6659423227651 436.42633074549036L965.6659423227651 436.42633074549036Q974.3874486328943 436.42633074549036 980.2595991882938 432.13990861011433Q986.1317497436933 427.8782634813012 988.4855653671657 419.3549732236749L988.4855653671657 419.3549732236749L998.693692071067 421.0893636830756Q997.2814026969834 427.1101762778523 994.2833849028766 431.76825351167133Q991.2853671087696 436.42633074549036 986.8255059274536 439.30046350678293Q982.3904217527004 442.1745962680755 976.6421562301152 443.8594327143505Q970.89389070753 445.5690461671883 964.0058828830531 445.5690461671883L964.0058828830531 445.5690461671883Q954.863167461355 445.5690461671883 947.4548424990578 442.64535939277Q940.0712945433233 439.72167261835165 934.8433461585585 434.6671632795268Q929.6153977737936 429.6126539407019 926.7412650125009 422.0804439455903Q923.8671322512083 414.5482339504787 923.8671322512083 405.33118750909216L923.8671322512083 405.33118750909216Q923.8671322512083 396.60968119896296 926.6421569862493 389.07747120385136Q929.4419587278534 381.54526120873976 934.5212450732411 375.97043473209465Q939.6253084251917 370.39560825544953 946.6372012824831 367.07548937602536Q953.6490941397745 363.7801475031641 962.1971614039637 363.7801475031641L962.1971614039637 363.7801475031641Q965.6659423227651 363.7801475031641 969.0603922218779 364.2013566147328Q972.4548421209906 364.6473427328644 975.5519679413491 365.6879770085048Q978.6490937617075 366.72861128414525 981.3002334639342 368.5621097697974Q983.9513731661609 370.39560825544953 986.0574187240047 373.0963019708021L986.0574187240047 373.0963019708021L988.237795301537 366.20829414632504Q988.5846733934171 366.20829414632504 989.7491927018718 366.25784815945076Q990.9384890168894 366.3074021725765 992.2268933581586 366.3074021725765Q993.5400747059905 366.3074021725765 994.7293710210081 366.33217917913936Q995.8938903294629 366.3817331922651 996.2407684213431 366.3817331922651L996.2407684213431 366.3817331922651ZM1008.356724630585 443.7355476815361L1008.356724630585 435.9803446273587Q1011.9989445953265 435.9060136076701 1014.5757532778647 435.7573515682929Q1017.1525619604029 435.6334665354786 1018.7630673869892 435.0635953845326Q1020.3735728135756 434.4937242335867 1021.0673289973358 433.32920492513193Q1021.7610851810962 432.13990861011433 1021.7610851810962 430.05864005883353L1021.7610851810962 430.05864005883353L1021.7610851810962 343.28956307567296Q1021.7610851810962 341.6542806425237 1020.9929979776473 340.8118624193863Q1020.2001337676355 339.9942212028117 1018.5896283410491 339.5977890978058Q1016.9791229144628 339.2013569927999 1014.526199264739 339.1270259731113Q1012.0980526215781 339.0279179468599 1008.7779337421539 339.0279179468599L1008.7779337421539 339.0279179468599L1008.7779337421539 331.1983838729938Q1013.4855649890985 331.1983838729938 1017.1525619604029 331.1983838729938Q1020.8195589317072 331.1983838729938 1023.9910157717542 331.1488298598681Q1027.1624726118011 331.0992758467424 1030.1357133993451 331.02494482705373Q1033.0841771803264 330.9258368008023 1036.3051880334992 330.8515057811137L1036.3051880334992 330.8515057811137L1036.3051880334992 400.52444823589593L1059.8433442682228 382.8584425565717Q1068.6391815980408 376.56508288960345 1068.6391815980408 374.75636141051416L1068.6391815980408 374.75636141051416Q1068.6391815980408 374.31037529238256 1067.9206484077176 374.037828220191Q1067.2268922239573 373.79005815456236 1066.0623729155025 373.66617312174805Q1064.8730766004849 373.5175110823708 1063.2625711738983 373.5175110823708Q1061.6520657473122 373.5175110823708 1059.9176752879114 373.5175110823708L1059.9176752879114 373.5175110823708L1060.190222360103 365.7870850347563Q1064.6996375545448 365.8614160544449 1068.2427494930348 365.91097006757064Q1071.761084424962 365.96052408069636 1074.734325212506 365.96052408069636L1074.734325212506 365.96052408069636Q1079.6153955053908 365.96052408069636 1084.6946818507786 365.91097006757064Q1089.7987452027292 365.8614160544449 1096.513313981266 365.7870850347563L1096.513313981266 365.7870850347563L1096.513313981266 373.5175110823708Q1092.9206480296502 373.5175110823708 1090.938487504621 373.6166191086223Q1088.9315499730287 373.6909501283109 1087.0484974742508 374.48381433832265Q1085.1902219820358 375.27667854833436 1082.6629673126236 377.01106900773505Q1080.1357126432108 378.7454594671358 1075.6015204422063 382.13990936624856L1075.6015204422063 382.13990936624856L1051.1218379580937 400.27667817026725L1085.0911139557843 431.54526045260553Q1088.2377937892686 434.4193932138981 1090.7154944455551 435.2370344304727Q1093.1931951018419 436.0794526536102 1096.0673278631346 436.0794526536102L1096.0673278631346 436.0794526536102Q1097.0336311190863 436.0794526536102 1097.9751573684753 436.0298986404844Q1098.941460624427 435.9803446273587 1100.1555339460076 435.9803446273587L1100.1555339460076 435.9803446273587L1100.1555339460076 443.7355476815361Q1095.8938888171945 443.7355476815361 1091.7065747080699 443.6364396552846Q1087.5192605989455 443.5621086355961 1082.6629673126236 443.5621086355961L1082.6629673126236 443.5621086355961Q1079.4419564594507 443.5621086355961 1076.6917087309726 443.6116626487218Q1073.9414610024942 443.6364396552846 1071.3398753133931 443.6364396552846Q1068.7135126177293 443.6364396552846 1066.1367039351912 443.6859936684104Q1063.5846722592157 443.7355476815361 1060.8839785438631 443.7355476815361L1060.8839785438631 443.7355476815361L1060.8839785438631 435.9803446273587Q1065.4925017645564 435.9803446273587 1067.449885283023 435.8069055814187Q1069.4072688014896 435.6334665354786 1069.4072688014896 434.5928322598382L1069.4072688014896 434.5928322598382Q1069.4072688014896 433.62652900388633 1068.1436414667833 432.28857064949153Q1066.8800141320771 430.92583528853385 1064.7987455807963 429.0180057831931L1064.7987455807963 429.0180057831931L1040.0465160244921 406.2727137584811L1036.3051880334992 408.72563740820493L1036.2308570138105 430.15774808508496Q1036.2308570138105 431.96646956417425 1036.7511741516307 433.10621186606613Q1037.271491289451 434.245954167958 1038.758111683223 434.8901563385926Q1040.244732076995 435.55913551579 1042.8958717792218 435.7573515682929Q1045.5470114814486 435.9803446273587 1049.907764636513 435.9803446273587L1049.907764636513 435.9803446273587L1049.907764636513 443.7355476815361Q1045.3735724355083 443.7355476815361 1040.7154952016895 443.7355476815361Q1036.0574179678706 443.7355476815361 1030.0366053730936 443.5621086355961L1030.0366053730936 443.5621086355961Q1029.615396261525 443.5621086355961 1026.9394795527353 443.6116626487218Q1024.2883398505087 443.6364396552846 1020.8938899513957 443.6364396552846Q1017.499440052283 443.6364396552846 1013.9811051203558 443.6859936684104Q1010.4379931818659 443.7355476815361 1008.356724630585 443.7355476815361L1008.356724630585 443.7355476815361ZM1133.257614713998 365.3410989166247L1133.257614713998 436.42633074549036Q1133.257614713998 442.5958053796442 1133.084175668058 448.22018586941505Q1132.9107366221178 453.8445663591859 1132.0435413924174 458.5769746126935Q1131.1763461627172 463.33415987276396 1129.4667327098794 467.17459589000833Q1127.7818962636045 470.9902549006899 1124.7591014629347 473.66617160947953Q1121.7610836688277 476.3173113117063 1117.1525604481344 477.75437769235265Q1112.5192602208783 479.1914440729989 1106.0029074948443 479.1914440729989L1106.0029074948443 479.1914440729989Q1102.2615795038512 479.1914440729989 1098.6441365456726 478.84456598111876Q1095.026693587494 478.49768788923865 1091.4588046424412 477.5313846332868L1091.4588046424412 477.5313846332868L1091.4588046424412 462.020978524932Q1093.0197560559018 462.1944175708721 1094.7541465153026 462.24397158399785Q1096.513313981266 462.29352559712356 1098.1485964144154 462.29352559712356L1098.1485964144154 462.29352559712356Q1098.8671296047385 467.248926909697 1100.477635031325 469.0328713822234Q1102.0881404579113 470.8168158547498 1105.2100432848324 470.8168158547498L1105.2100432848324 470.8168158547498Q1109.9176745317773 470.8168158547498 1112.6183682471296 468.8346553297205Q1115.3190619624822 466.8277177981282 1116.6322433103142 462.59084967587796Q1117.9206476515833 458.37875856019053 1118.2427487369007 451.8376288275937Q1118.5400728156549 445.29649909499676 1118.5400728156549 436.2528916995503L1118.5400728156549 436.2528916995503L1118.5400728156549 378.4976894015071Q1118.5400728156549 376.73852193554353 1117.8463166318948 375.74744167302885Q1117.1525604481344 374.75636141051416 1115.6659400543624 374.31037529238256Q1114.1793196605904 373.86438917425096 1111.7016190043037 373.6909501283109Q1109.223918348017 373.5175110823708 1105.7303604226527 373.5175110823708L1105.7303604226527 373.5175110823708L1105.7303604226527 365.7870850347563Q1113.2377934112014 365.7870850347563 1119.9275851831756 365.7870850347563Q1126.6421539617124 365.7870850347563 1133.257614713998 365.3410989166247L1133.257614713998 365.3410989166247ZM1123.9414602463598 329.1914463414016L1123.9414602463598 329.1914463414016Q1128.376544421113 329.1914463414016 1130.8790220839628 331.2727148926825Q1133.3567227402496 333.37876045052616 1133.3567227402496 337.1944194612077L1133.3567227402496 337.1944194612077Q1133.3567227402496 341.13396350470356 1130.829468070837 343.28956307567296Q1128.3022134014245 345.46993965320524 1123.9414602463598 345.46993965320524L1123.9414602463598 345.46993965320524Q1119.5063760716068 345.46993965320524 1117.0534524218829 343.28956307567296Q1114.6253057787221 341.13396350470356 1114.6253057787221 337.1944194612077L1114.6253057787221 337.1944194612077Q1114.6253057787221 333.45309147021476 1117.1030064350086 331.3222689058082Q1119.5807070912954 329.1914463414016 1123.9414602463598 329.1914463414016ZM1196.1416573705546 363.7801475031641L1196.1416573705546 363.7801475031641Q1205.3091497988155 363.7801475031641 1212.9652448267414 366.65428026445664Q1220.6213398546674 369.5284130257492 1226.1713893247495 374.92980045645425Q1231.696661788269 380.3311878871593 1234.7442335955016 387.9872829150852Q1237.791805402734 395.6433779430111 1237.791805402734 404.81087037127196L1237.791805402734 404.81087037127196Q1237.791805402734 413.60670770108976 1234.7442335955016 421.2132487158899Q1231.696661788269 428.844566737253 1226.1961663313125 434.245954167958Q1220.7204478809188 439.64734159866305 1213.0643528529927 442.5958053796442Q1205.383480818504 445.5690461671883 1196.1416573705546 445.5690461671883L1196.1416573705546 445.5690461671883Q1186.924610929168 445.5690461671883 1179.2932929078052 442.64535939277Q1171.6867518930048 439.72167261835165 1166.1862564360483 434.2955081810838Q1160.7105379856548 428.844566737253 1157.6877431849848 421.2132487158899Q1154.689725390878 413.60670770108976 1154.689725390878 404.81087037127196L1154.689725390878 404.81087037127196Q1154.689725390878 395.6433779430111 1157.7372971981108 388.0368369282109Q1160.7848690053434 380.4055189068479 1166.2853644622999 374.9545774630171Q1171.7610829126934 369.5284130257492 1179.3924009340565 366.65428026445664Q1186.9989419488566 363.7801475031641 1196.1416573705546 363.7801475031641ZM1196.1416573705546 372.8237548986105L1196.1416573705546 372.8237548986105Q1190.0465137560893 372.8237548986105 1185.1902204697674 375.1032395023943Q1180.3091501768827 377.3579470996152 1176.865146264644 381.4461531824883Q1173.4211423524055 385.5591362719242 1171.5876438667533 391.50561784701233Q1169.7541453811014 397.4768764286633 1169.7541453811014 404.7117623450205L1169.7541453811014 404.7117623450205Q1169.7541453811014 411.5006621432461 1171.6371978798793 417.471920724897Q1173.4954733720942 423.44317930654796 1176.9394772843327 427.6552704222354Q1180.3834811965712 431.89213854448565 1185.264551489456 434.1468461417066Q1190.1456217823409 436.42633074549036 1196.1416573705546 436.42633074549036L1196.1416573705546 436.42633074549036Q1202.1624699653312 436.42633074549036 1207.0435402582161 434.1468461417066Q1211.924610551101 431.89213854448565 1215.3933914699023 427.6552704222354Q1218.8869493952666 423.44317930654796 1220.7700018940445 417.471920724897Q1222.6282773862595 411.5006621432461 1222.6282773862595 404.7117623450205L1222.6282773862595 404.7117623450205Q1222.6282773862595 397.57598445491476 1220.7700018940445 391.55517186013805Q1218.8869493952666 385.5591362719242 1215.442945483028 381.4461531824883Q1211.9989415707896 377.3579470996152 1207.093094271342 375.1032395023943Q1202.1624699653312 372.8237548986105 1196.1416573705546 372.8237548986105ZM1248.2477021722643 443.7355476815361L1248.2477021722643 435.9803446273587Q1251.8899221370057 435.9060136076701 1254.4667308195437 435.7573515682929Q1257.0435395020818 435.6334665354786 1258.654044928668 435.0635953845326Q1260.2645503552546 434.4937242335867 1260.9583065390148 433.32920492513193Q1261.652062722775 432.13990861011433 1261.652062722775 430.05864005883353L1261.652062722775 430.05864005883353L1261.652062722775 343.28956307567296Q1261.652062722775 341.6542806425237 1260.8839755193262 340.8118624193863Q1260.0911113093148 339.9942212028117 1258.4806058827282 339.5977890978058Q1256.870100456142 339.2013569927999 1254.417176806418 339.1270259731113Q1251.989030163257 339.0279179468599 1248.6689112838328 339.0279179468599L1248.6689112838328 339.0279179468599L1248.6689112838328 331.1983838729938Q1253.3765425307774 331.1983838729938 1257.0435395020818 331.1983838729938Q1260.7105364733861 331.1983838729938 1263.8819933134332 331.1488298598681Q1267.0534501534803 331.0992758467424 1270.0266909410243 331.02494482705373Q1272.9751547220053 330.9258368008023 1276.1961655751784 330.8515057811137L1276.1961655751784 330.8515057811137L1276.1961655751784 400.52444823589593L1299.734321809902 382.8584425565717Q1308.5301591397197 376.56508288960345 1308.5301591397197 374.75636141051416L1308.5301591397197 374.75636141051416Q1308.5301591397197 374.31037529238256 1307.8364029559593 374.037828220191Q1307.1178697656362 373.79005815456236 1305.9533504571814 373.66617312174805Q1304.7640541421638 373.5175110823708 1303.1535487155775 373.5175110823708Q1301.5430432889912 373.5175110823708 1299.8086528295905 373.5175110823708L1299.8086528295905 373.5175110823708L1300.081199901782 365.7870850347563Q1304.5906150962237 365.8614160544449 1308.133727034714 365.91097006757064Q1311.652061966641 365.96052408069636 1314.6253027541852 365.96052408069636L1314.6253027541852 365.96052408069636Q1319.5063730470697 365.96052408069636 1324.5856593924577 365.91097006757064Q1329.6897227444083 365.8614160544449 1336.4042915229452 365.7870850347563L1336.4042915229452 365.7870850347563L1336.4042915229452 373.5175110823708Q1332.8116255713294 373.5175110823708 1330.8294650463004 373.6166191086223Q1328.8225275147079 373.6909501283109 1326.93947501593 374.48381433832265Q1325.081199523715 375.27667854833436 1322.5539448543025 377.01106900773505Q1320.02669018489 378.7454594671358 1315.4924979838854 382.13990936624856L1315.4924979838854 382.13990936624856L1291.0128154997726 400.27667817026725L1324.9820914974634 431.54526045260553Q1328.1287713309475 434.4193932138981 1330.6064719872343 435.2370344304727Q1333.084172643521 436.0794526536102 1335.9583054048135 436.0794526536102L1335.9583054048135 436.0794526536102Q1336.9246086607654 436.0794526536102 1337.8661349101544 436.0298986404844Q1338.8324381661062 435.9803446273587 1340.0465114876865 435.9803446273587L1340.0465114876865 435.9803446273587L1340.0465114876865 443.7355476815361Q1335.7848663588736 443.7355476815361 1331.597552249749 443.6364396552846Q1327.4350151471872 443.5621086355961 1322.5539448543025 443.5621086355961L1322.5539448543025 443.5621086355961Q1319.3329340011296 443.5621086355961 1316.5826862726517 443.6116626487218Q1313.8324385441733 443.6364396552846 1311.230852855072 443.6364396552846Q1308.6044901594082 443.6364396552846 1306.02768147687 443.6859936684104Q1303.4756498008949 443.7355476815361 1300.7749560855423 443.7355476815361L1300.7749560855423 443.7355476815361L1300.7749560855423 435.9803446273587Q1305.3834793062356 435.9803446273587 1307.340862824702 435.8069055814187Q1309.2982463431686 435.6334665354786 1309.2982463431686 434.5928322598382L1309.2982463431686 434.5928322598382Q1309.2982463431686 433.62652900388633 1308.0346190084624 432.28857064949153Q1306.7709916737563 430.92583528853385 1304.6897231224752 429.0180057831931L1304.6897231224752 429.0180057831931L1279.9622705727338 406.2727137584811L1276.1961655751784 408.72563740820493L1276.1218345554896 430.15774808508496Q1276.1218345554896 431.96646956417425 1276.6421516933099 433.10621186606613Q1277.16246883113 434.245954167958 1278.6490892249021 434.8901563385926Q1280.135709618674 435.55913551579 1282.7868493209007 435.7573515682929Q1285.4379890231276 435.9803446273587 1289.7987421781922 435.9803446273587L1289.7987421781922 435.9803446273587L1289.7987421781922 443.7355476815361Q1285.2645499771875 443.7355476815361 1280.6064727433686 443.7355476815361Q1275.9483955095495 443.7355476815361 1269.9275829147728 443.5621086355961L1269.9275829147728 443.5621086355961Q1269.506373803204 443.5621086355961 1266.8304570944144 443.6116626487218Q1264.1793173921876 443.6364396552846 1260.7848674930747 443.6364396552846Q1257.390417593962 443.6364396552846 1253.872082662035 443.6859936684104Q1250.328970723545 443.7355476815361 1248.2477021722643 443.7355476815361L1248.2477021722643 443.7355476815361ZM1427.1624665627273 405.85150464691236L1421.9345181779622 407.41245606037296L1360.2645488429862 407.41245606037296Q1360.3388798626747 414.37479490453865 1362.4449254205185 419.7018513155551Q1364.5261939717993 425.0041307200086 1368.3666299890438 428.7206817044387Q1372.2070660062882 432.41245568230585 1377.5588994238674 434.4193932138981Q1382.9107328414466 436.42633074549036 1389.4518625740436 436.42633074549036L1389.4518625740436 436.42633074549036Q1398.5945779957415 436.42633074549036 1405.2843697677156 432.6850027544974Q1411.9989385462527 428.9188977569416 1415.665935517557 421.0893636830756L1415.665935517557 421.0893636830756L1426.1961633067754 422.74942312278773Q1422.2070652501538 433.7999680498264 1412.122823579067 439.69689561178876Q1402.063358914543 445.5690461671883 1387.4449250424514 445.5690461671883L1387.4449250424514 445.5690461671883Q1377.6084534369934 445.5690461671883 1369.7541423565644 442.5958053796442Q1361.9246082826983 439.64734159866305 1356.4736668388673 434.245954167958Q1351.0227253950368 428.844566737253 1348.148592633744 421.5601268077701Q1345.2744598724516 414.30046388485 1345.2744598724516 404.984309417212L1345.2744598724516 404.984309417212Q1345.2744598724516 395.5690469233225 1348.2477006599956 388.0368369282109Q1351.1961644409766 380.50462693309936 1356.5975518716818 375.1032395023943Q1361.998939302387 369.7018520716893 1369.63025732375 366.72861128414525Q1377.23679833855 363.7801475031641 1386.577729812751 363.7801475031641L1386.577729812751 363.7801475031641Q1395.9682153000776 363.7801475031641 1403.4756482886264 366.6047262513309Q1410.9583042706122 369.42930499949773 1416.1862526553773 374.83069243020276Q1421.4142010401422 380.2320798609078 1424.2387797883089 387.9872829150852Q1427.0633585364758 395.7424859692626 1427.1624665627273 405.85150464691236L1427.1624665627273 405.85150464691236ZM1360.3388798626747 399.58292198650696L1413.039572821893 399.58292198650696Q1411.9989385462527 386.4263315016246 1405.210038748027 379.6126546968361Q1398.4211389498014 372.8237548986105 1386.751168858691 372.8237548986105L1386.751168858691 372.8237548986105Q1381.2506734017347 372.8237548986105 1376.71648120073 374.70680739738845Q1372.2070660062882 376.56508288960345 1368.7878391006125 379.9347557821534Q1365.3933892014998 383.27965166814045 1363.2625666370932 388.1607219610253Q1361.1317440726866 393.04179225391005 1360.3388798626747 399.58292198650696L1360.3388798626747 399.58292198650696ZM1503.649085822298 365.7870850347563L1503.649085822298 389.89511242042596L1495.4478966499892 389.89511242042596Q1495.1010185581088 381.1983831168596 1489.6500771142782 376.44119785678913Q1484.2239126770103 371.7087896032815 1473.9414549534204 371.7087896032815L1473.9414549534204 371.7087896032815Q1469.580701798356 371.7087896032815 1466.359690945183 372.74942387892196Q1463.1386800920102 373.79005815456236 1460.9583035144778 375.52444861396305Q1458.7779269369457 377.2836160799266 1457.7372926613052 379.5878776902733Q1456.6966583856647 381.8921393006199 1456.6966583856647 384.32028594378085L1456.6966583856647 384.32028594378085Q1456.6966583856647 387.0209796591334 1458.1337247663112 389.07747120385136Q1459.5707911469576 391.13396274856933 1462.1723768360584 392.69491416202993Q1464.7987395317225 394.25586557549053 1468.416182489901 395.469938897071Q1472.0088484415166 396.7087892252144 1476.369601596581 397.82375452054345L1476.369601596581 397.82375452054345Q1483.4310484669986 399.65725300619556 1489.129759976458 401.6641905377878Q1494.8532484924801 403.67112806938 1498.8175695425389 406.4213757978583Q1502.7571135860348 409.14684651977365 1504.937490163567 413.0368365501438Q1507.1178667410995 416.90204957395105 1507.1178667410995 422.57598407684765L1507.1178667410995 422.57598407684765Q1507.1178667410995 428.1508105534927 1504.8631591438784 432.41245568230585Q1502.5836745400948 436.674100811119 1498.445914444096 439.59778758553733Q1494.308154348097 442.5214743599556 1488.4855578058232 444.0328717602905Q1482.6381842569867 445.5690461671883 1475.5024063668811 445.5690461671883L1475.5024063668811 445.5690461671883Q1466.4340219648716 445.5690461671883 1460.4379863766578 443.388669589656Q1454.417173781881 441.20829301212365 1450.6015147711996 436.5006617651789L1450.6015147711996 436.5006617651789L1449.7095425349362 443.7355476815361Q1447.727382009907 443.6364396552846 1445.8938835242548 443.6116626487218Q1444.0603850386026 443.5621086355961 1442.0534475070103 443.7355476815361L1442.0534475070103 443.7355476815361L1442.0534475070103 417.8683528299029L1450.502406744948 417.8683528299029Q1451.0227238827683 427.9773715075526 1457.0435364775449 432.63544874137165Q1463.0395720657589 437.2935259751907 1473.4954688352886 437.2935259751907L1473.4954688352886 437.2935259751907Q1477.9553300166049 437.2935259751907 1481.6471039944718 436.3767767323646Q1485.338877972339 435.4600274895385 1487.965240668003 433.8990760760779Q1490.5668263571042 432.3133476560544 1492.0534467508762 430.05864005883353Q1493.5400671446482 427.8039324616126 1493.5400671446482 424.65725262812845L1493.5400671446482 424.65725262812845Q1493.5400671446482 421.2628027290157 1491.4835755999302 418.9089871055433Q1489.4518610617752 416.55517148207093 1486.0078571495364 414.7712270095445Q1482.5638532372982 412.9872825370181 1477.9801070231679 411.6245471760604Q1473.4211378156 410.2865888216656 1468.3666284767753 408.79996842789353L1468.3666284767753 408.79996842789353Q1462.1723768360584 406.89213892255276 1457.5142996022396 404.8356473778348Q1452.8562223684205 402.8039328396797 1449.7095425349362 400.17757014401576Q1446.587639708015 397.57598445491476 1445.0266882945543 394.0824265295505Q1443.440959874531 390.58886860418625 1443.440959874531 385.90601436380433L1443.440959874531 385.90601436380433Q1443.440959874531 381.3718221627997 1445.3983433929975 377.3579470996152Q1447.380503918027 373.34407203643076 1451.0227238827683 370.2717232226352Q1454.6897208540727 367.17459740227685 1459.8681152257118 365.464983949439Q1465.046509597351 363.7801475031641 1471.4885313036966 363.7801475031641L1471.4885313036966 363.7801475031641Q1478.6490862003652 363.7801475031641 1484.991999880459 365.81186204131916Q1491.3596905671159 367.86835358603713 1495.2744576040488 371.9565596689102L1495.2744576040488 371.9565596689102Q1495.2744576040488 371.8822286492216 1495.5717816828032 370.9654794063955Q1495.8938827681204 370.0487301635694 1496.2407608600008 368.90898786167753L1496.2407608600008 368.90898786167753Q1496.5876389518808 367.59580651384556 1497.107956089701 365.7870850347563L1497.107956089701 365.7870850347563Q1498.6689075031616 365.8614160544449 1500.0564198706822 365.8614160544449L1500.0564198706822 365.8614160544449Q1501.2952701988256 365.8614160544449 1502.2863504613401 365.81186204131916Q1503.3022077304179 365.7870850347563 1503.649085822298 365.7870850347563L1503.649085822298 365.7870850347563Z " fill="#dfe0e2" transform="matrix(0.5805783501539469,0,0,0.5805783501539468,0,65.33519606680667)"/></g></svg>